<svg id="Capa_1" enable-background="new 0 0 510 510" height="512" viewBox="0 0 510 510" width="512" xmlns="http://www.w3.org/2000/svg" xmlns:xlink="http://www.w3.org/1999/xlink"><linearGradient id="SVGID_1_" gradientUnits="userSpaceOnUse" x1="150.629" x2="307.387" y1="150.629" y2="307.387"><stop offset="0" stop-color="#2f73a0"/><stop offset="1" stop-color="#174461"/></linearGradient><linearGradient id="lg1"><stop offset="0" stop-color="#7acbff"/><stop offset="1" stop-color="#45a2e0"/></linearGradient><linearGradient id="SVGID_2_" gradientUnits="userSpaceOnUse" x1="126.402" x2="395.506" xlink:href="#lg1" y1="126.402" y2="395.506"/><linearGradient id="SVGID_3_" gradientUnits="userSpaceOnUse" x1="430.795" x2="65.132" xlink:href="#lg1" y1="430.795" y2="65.132"/><linearGradient id="SVGID_4_" gradientUnits="userSpaceOnUse" x1="417.579" x2="266.723" y1="356.933" y2="273.465"><stop offset="0" stop-color="#2f73a0" stop-opacity="0"/><stop offset="1" stop-color="#2f73a0"/></linearGradient><linearGradient id="lg2"><stop offset="0" stop-color="#ffdecf"/><stop offset="1" stop-color="#faa68e"/></linearGradient><linearGradient id="SVGID_5_" gradientUnits="userSpaceOnUse" x1="130.37" x2="159.357" xlink:href="#lg2" y1="271.312" y2="336.322"/><linearGradient id="SVGID_6_" gradientUnits="userSpaceOnUse" x1="364" x2="392.987" xlink:href="#lg2" y1="271.312" y2="336.322"/><linearGradient id="SVGID_7_" gradientUnits="userSpaceOnUse" x1="247.373" x2="371.627" xlink:href="#lg2" y1="260.751" y2="385.006"/><linearGradient id="lg3"><stop offset="0" stop-color="#ff9356" stop-opacity="0"/><stop offset="1" stop-color="#ff4181"/></linearGradient><linearGradient id="SVGID_8_" gradientUnits="userSpaceOnUse" x1="266.442" x2="240" xlink:href="#lg3" y1="307.393" y2="162.981"/><linearGradient id="lg4"><stop offset="0" stop-color="#5a7587"/><stop offset="1" stop-color="#092a40"/></linearGradient><linearGradient id="SVGID_9_" gradientUnits="userSpaceOnUse" x1="236.62" x2="301.452" xlink:href="#lg4" y1="143.354" y2="318.783"/><linearGradient id="lg5"><stop offset="0" stop-color="#092a40" stop-opacity="0"/><stop offset="1" stop-color="#092a40"/></linearGradient><linearGradient id="SVGID_10_" gradientUnits="userSpaceOnUse" x1="170.035" x2="249.359" xlink:href="#lg5" y1="191.876" y2="258.234"/><linearGradient id="SVGID_11_" gradientUnits="userSpaceOnUse" x1="194.469" x2="217.228" xlink:href="#lg4" y1="306.593" y2="329.352"/><linearGradient id="SVGID_12_" gradientUnits="userSpaceOnUse" x1="201.654" x2="225.808" xlink:href="#lg5" y1="319.903" y2="274.979"/><linearGradient id="SVGID_13_" gradientUnits="userSpaceOnUse" x1="302.382" x2="325.141" xlink:href="#lg4" y1="306.593" y2="329.352"/><linearGradient id="SVGID_14_" gradientUnits="userSpaceOnUse" x1="309.567" x2="333.721" xlink:href="#lg5" y1="319.903" y2="274.979"/><linearGradient id="SVGID_15_" gradientUnits="userSpaceOnUse" x1="250.402" x2="268.442" y1="364.427" y2="395.095"><stop offset="0" stop-color="#ff755c"/><stop offset="1" stop-color="#ff4181"/></linearGradient><linearGradient id="SVGID_16_" gradientUnits="userSpaceOnUse" x1="255" x2="255" xlink:href="#lg3" y1="341.224" y2="298.121"/><g><g><circle cx="255" cy="255" fill="url(#SVGID_1_)" r="217.481"/><g><path d="m445.539 255c0-7.504-.439-14.904-1.286-22.18-1.09-9.356 2.617-18.633 9.698-24.845l29.15-25.574c9.894-8.68 12.117-23.215 5.271-34.456l-31.177-51.185c-6.846-11.241-20.782-15.934-33.033-11.125l-36.338 14.262c-8.795 3.452-18.68 2.243-26.515-3.036-8.418-5.671-17.314-10.687-26.614-14.976-8.558-3.947-14.703-11.754-16.326-21.037l-6.717-38.422c-2.267-12.966-13.524-22.426-26.686-22.426h-59.932c-13.162 0-24.419 9.46-26.685 22.425l-6.717 38.422c-1.623 9.283-7.768 17.091-16.326 21.037-9.3 4.289-18.196 9.305-26.614 14.976-7.836 5.278-17.721 6.487-26.515 3.036l-36.339-14.262c-12.252-4.808-26.187-.115-33.033 11.125l-31.176 51.185c-6.846 11.241-4.623 25.776 5.271 34.456l29.15 25.574c7.081 6.212 10.788 15.489 9.698 24.845-.848 7.276-1.286 14.677-1.286 22.18s.439 14.904 1.286 22.18c1.09 9.356-2.617 18.633-9.698 24.845l-29.15 25.574c-9.894 8.68-12.117 23.215-5.271 34.456l31.176 51.185c6.846 11.241 20.782 15.934 33.033 11.125l36.338-14.262c8.795-3.452 18.68-2.242 26.515 3.036 8.418 5.671 17.314 10.687 26.614 14.976 8.558 3.947 14.703 11.754 16.326 21.037l6.717 38.422c2.267 12.967 13.524 22.427 26.686 22.427h59.932c13.162 0 24.419-9.46 26.685-22.425l6.717-38.422c1.623-9.283 7.768-17.091 16.326-21.037 9.3-4.289 18.196-9.305 26.614-14.976 7.836-5.278 17.721-6.487 26.515-3.036l36.338 14.262c12.252 4.809 26.187.115 33.033-11.125l31.176-51.185c6.846-11.241 4.623-25.776-5.271-34.456l-29.15-25.574c-7.081-6.212-10.788-15.489-9.698-24.845.85-7.277 1.288-14.677 1.288-22.181z" fill="url(#SVGID_2_)"/><circle cx="255" cy="255" fill="url(#SVGID_3_)" r="155.751"/></g></g><path d="m311.651 487.575 6.717-38.422c1.623-9.283 7.768-17.091 16.326-21.037 9.3-4.289 18.196-9.305 26.614-14.976 7.836-5.278 17.721-6.488 26.515-3.036l36.338 14.262c12.252 4.809 26.187.115 33.033-11.125l31.176-51.186c6.846-11.241 4.623-25.776-5.271-34.456l-29.15-25.574c-7.081-6.212-10.788-15.489-9.698-24.845.848-7.276 1.286-14.677 1.286-22.18 0-7.504-.439-14.904-1.286-22.18-1.09-9.356 2.617-18.633 9.698-24.845l5.009-4.394-79.296-79.297c-15.576-17.436-38.216-26.384-63.428-26.384h-74.421c-19.286 0-37.078 6.433-51.345 17.264-7.857-4.307-16.885-6.754-26.476-6.754-15.254 0-28.555 5.675-38.043 15.162-9.488 9.476-15.162 22.778-15.162 38.032v49.048c0 16.897 7.593 32.013 19.55 42.144-9.626 3.905-16.403 13.347-16.403 24.374v23.341c0 9.017 2.481 16.966 9.396 21.698 1.826 2.676 17.804 18.654 20.48 20.492.161.23 2.378.471 2.55.701 6.754 14.576 14.255 27.579 25.902 38.354l125.178 125.178c7.291-3.794 12.716-10.802 14.211-19.359z" fill="url(#SVGID_4_)"/><g><g><path d="m111.887 300.513v-23.348c0-14.524 11.774-26.298 26.298-26.298 14.524 0 26.298 11.774 26.298 26.298v23.348c0 14.524-11.774 26.298-26.298 26.298-14.524 0-26.298-11.774-26.298-26.298z" fill="url(#SVGID_5_)"/><path d="m345.516 300.513v-23.348c0-14.524 11.774-26.298 26.298-26.298 14.524 0 26.298 11.774 26.298 26.298v23.348c0 14.524-11.774 26.298-26.298 26.298-14.524 0-26.298-11.774-26.298-26.298z" fill="url(#SVGID_6_)"/></g><path d="m255 414.137c-67.364 0-121.973-54.609-121.973-121.973v-47.572c0-67.364 54.609-121.973 121.973-121.973 67.364 0 121.973 54.609 121.973 121.973v47.572c0 67.364-54.609 121.973-121.973 121.973z" fill="url(#SVGID_7_)"/><path d="m255 122.62c-67.364 0-121.973 54.609-121.973 121.973v11.812l153.587 153.587c52.037-13.927 90.359-61.398 90.359-117.827v-47.572c0-67.364-54.609-121.973-121.973-121.973z" fill="url(#SVGID_8_)"/><g><path d="m316.238 95.863h-74.423c-19.29 0-37.077 6.429-51.343 17.255-7.863-4.304-16.886-6.754-26.482-6.754-30.509 0-55.242 24.733-55.242 55.242v49.044c0 30.509 24.733 55.242 55.242 55.242 12.972 0 24.89-4.483 34.316-11.968 12.729 7.598 27.607 11.968 43.508 11.968h74.423c46.952 0 85.015-38.062 85.015-85.015 0-46.952-38.062-85.014-85.014-85.014z" fill="url(#SVGID_9_)"/><path d="m156.799 180.877c0-27.662 13.215-52.235 33.672-67.76-7.863-4.304-16.886-6.754-26.482-6.754-30.509 0-55.242 24.733-55.242 55.242v49.044c0 30.509 24.733 55.242 55.242 55.242 12.972 0 24.89-4.483 34.316-11.968-24.855-14.836-41.506-41.994-41.506-73.046z" fill="url(#SVGID_10_)"/></g><g><g><g><path d="m218.616 313.168c0 9.705-7.867 17.572-17.573 17.572-9.705 0-17.572-7.867-17.572-17.572s7.867-17.573 17.572-17.573c9.705.001 17.573 7.868 17.573 17.573z" fill="url(#SVGID_11_)"/><path d="m208.904 297.449c1.185 2.365 1.853 5.035 1.853 7.861 0 9.705-7.868 17.572-17.572 17.572-2.826 0-5.495-.668-7.861-1.853 2.885 5.758 8.84 9.712 15.719 9.712 9.705 0 17.573-7.867 17.573-17.572 0-6.88-3.954-12.835-9.712-15.72z" fill="url(#SVGID_12_)"/></g></g><g><g><path d="m326.529 313.168c0 9.705-7.867 17.572-17.573 17.572-9.705 0-17.572-7.867-17.572-17.572s7.867-17.573 17.572-17.573c9.705.001 17.573 7.868 17.573 17.573z" fill="url(#SVGID_13_)"/><path d="m316.817 297.449c1.185 2.365 1.853 5.035 1.853 7.861 0 9.705-7.868 17.572-17.572 17.572-2.826 0-5.495-.668-7.861-1.853 2.885 5.758 8.84 9.712 15.719 9.712 9.705 0 17.573-7.867 17.573-17.572 0-6.88-3.954-12.835-9.712-15.72z" fill="url(#SVGID_14_)"/></g></g></g><path d="m279.201 364.61c-15.339-7.161-33.062-7.161-48.401 0-3.968 1.852-5.742 6.54-3.957 10.538 4.086 9.151 12.932 23.539 28.157 23.539s24.071-14.388 28.157-23.539c1.786-3.998.011-8.685-3.956-10.538z" fill="url(#SVGID_15_)"/><ellipse cx="255" cy="335.725" fill="url(#SVGID_16_)" rx="15.763" ry="13.574"/></g></g></svg>